<svg width="223" height="95" viewBox="0 0 223 95" fill="none" xmlns="http://www.w3.org/2000/svg">
<path d="M34.2479 7.48277L85.9427 79.8526C72.251 82.8441 47.8466 69.0861 47.8466 69.0861C47.8466 69.0861 30.5045 91.9652 17.4469 94.8181L34.2479 7.48277Z" fill="#0076FF"/>
<path fill-rule="evenodd" clip-rule="evenodd" d="M17.4469 94.8181L25.2904 54.0458C32.0226 60.1641 39.5937 65.278 47.8466 69.0862C47.8466 69.0862 30.5045 91.9652 17.4469 94.8181Z" fill="#141CE1"/>
<path d="M99.52 42H111.436C119.788 42 125.512 37.14 125.512 29.4C125.512 21.66 119.788 16.8 111.436 16.8H99.52V42ZM106.648 36.312V22.488H111.148C115.432 22.488 118.312 25.044 118.312 29.4C118.312 33.756 115.432 36.312 111.148 36.312H106.648Z" fill="black"/>
<path d="M132.358 20.328C134.878 20.328 136.534 18.744 136.534 16.584C136.534 14.532 134.878 13.056 132.358 13.056C129.838 13.056 128.182 14.64 128.182 16.692C128.182 18.744 129.838 20.328 132.358 20.328ZM128.938 42H135.778V22.488H128.938V42Z" fill="black"/>
<path d="M154.695 22.488V24.864C153.363 23.028 151.275 22.164 148.575 22.164C143.391 22.164 138.999 25.836 138.999 31.56C138.999 37.32 143.391 40.992 148.575 40.992C151.059 40.992 153.039 40.236 154.371 38.688V39.336C154.371 42.396 152.823 44.052 149.151 44.052C146.847 44.052 144.183 43.26 142.563 41.964L140.079 46.752C142.455 48.444 146.019 49.308 149.763 49.308C157.035 49.308 161.211 45.816 161.211 38.436V22.488H154.695ZM150.195 35.556C147.747 35.556 145.911 33.936 145.911 31.56C145.911 29.184 147.747 27.6 150.195 27.6C152.643 27.6 154.443 29.184 154.443 31.56C154.443 33.936 152.643 35.556 150.195 35.556Z" fill="black"/>
<path d="M169.026 20.328C171.546 20.328 173.202 18.744 173.202 16.584C173.202 14.532 171.546 13.056 169.026 13.056C166.506 13.056 164.85 14.64 164.85 16.692C164.85 18.744 166.506 20.328 169.026 20.328ZM165.606 42H172.446V22.488H165.606V42Z" fill="black"/>
<path d="M188.663 36.42C188.087 36.816 187.331 37.032 186.575 37.032C185.351 37.032 184.523 36.24 184.523 34.8V28.32H188.987V23.208H184.523V18.132H177.683V23.208H174.839V28.32H177.683V34.872C177.683 39.876 180.599 42.324 185.603 42.324C187.403 42.324 189.167 41.964 190.355 41.208L188.663 36.42Z" fill="black"/>
<path d="M201.309 22.164C198.249 22.164 194.937 22.956 192.705 24.432L195.009 29.076C196.341 28.032 198.429 27.384 200.301 27.384C203.001 27.384 204.333 28.5 204.441 30.48H200.553C194.505 30.48 191.877 32.712 191.877 36.312C191.877 39.696 194.469 42.324 199.149 42.324C201.993 42.324 203.937 41.352 204.909 39.48V42H211.281V31.164C211.281 24.972 207.645 22.164 201.309 22.164ZM201.057 38.004C199.437 38.004 198.501 37.176 198.501 36.024C198.501 34.836 199.293 34.044 201.489 34.044H204.441V35.736C203.901 37.284 202.569 38.004 201.057 38.004Z" fill="black"/>
<path d="M215.598 42H222.438V15.288H215.598V42Z" fill="black"/>
<path d="M104.884 84H112.012V64.452H119.716V58.8H97.144V64.452H104.884V84Z" fill="black"/>
<path d="M128.177 66.828V64.488H121.661V84H128.501V75.036C128.501 71.616 130.409 70.212 133.181 70.212C133.685 70.212 134.117 70.248 134.729 70.32V64.164C131.849 64.164 129.581 65.064 128.177 66.828Z" fill="black"/>
<path d="M145.727 64.164C142.667 64.164 139.355 64.956 137.123 66.432L139.427 71.076C140.759 70.032 142.847 69.384 144.719 69.384C147.419 69.384 148.751 70.5 148.859 72.48H144.971C138.923 72.48 136.295 74.712 136.295 78.312C136.295 81.696 138.887 84.324 143.567 84.324C146.411 84.324 148.355 83.352 149.327 81.48V84H155.699V73.164C155.699 66.972 152.063 64.164 145.727 64.164ZM145.475 80.004C143.855 80.004 142.919 79.176 142.919 78.024C142.919 76.836 143.711 76.044 145.907 76.044H148.859V77.736C148.319 79.284 146.987 80.004 145.475 80.004Z" fill="black"/>
<path d="M170.27 84.324C174.698 84.324 178.082 82.344 179.414 78.96L174.122 76.26C173.186 78.096 171.818 78.888 170.234 78.888C167.858 78.888 165.986 77.232 165.986 74.208C165.986 71.256 167.858 69.6 170.234 69.6C171.818 69.6 173.186 70.392 174.122 72.228L179.414 69.528C178.082 66.144 174.698 64.164 170.27 64.164C163.718 64.164 159.074 68.34 159.074 74.208C159.074 80.148 163.718 84.324 170.27 84.324Z" fill="black"/>
<path d="M196.247 84H204.527L195.743 72.84L203.843 64.488H195.743L188.759 71.292V57.288H181.919V84H188.759V79.212L190.775 77.16L196.247 84Z" fill="black"/>
</svg>
